<?xml version="1.0" encoding="utf-8"?>
<!-- Generator: Adobe Illustrator 27.5.0, SVG Export Plug-In . SVG Version: 6.00 Build 0)  -->
<svg version="1.1" xmlns="http://www.w3.org/2000/svg" xmlns:xlink="http://www.w3.org/1999/xlink" x="0px" y="0px"
	 viewBox="0 0 500 500" style="enable-background:new 0 0 500 500;" xml:space="preserve">
<g id="BACKGROUND">
	<g>
		<g>
			<rect y="0.002" style="fill:#FFFFFF;" width="500" height="500"/>
		</g>
	</g>
</g>
<g id="OBJECTS">
	<g>
		<path style="fill:#F5F5FD;" d="M431.163,458.435c0,0,27.545-37.014,23.529-84.889c-2.825-33.677-30.203-48.658-41.091-80.202
			s20.317-87.401,5.259-115.784c-29.194-55.028-85.116-64.172-122.416-42.638c-37.299,21.535-43.495,48.442-64.117,36.535
			c-20.622-11.906-43.176-40.612-96.096-24.226C94.26,160.229,59.764,200.158,67.94,256.687
			c5.963,41.232,60.741,78.657,32.676,121.719C72.55,421.469,112.7,458.435,112.7,458.435H431.163z"/>
		<g>
			<g>
				<g>
					<g>
						
							<line style="fill:none;stroke:#ACBDFC;stroke-width:2;stroke-linecap:round;stroke-linejoin:round;" x1="150.994" y1="133.667" x2="150.994" y2="133.667"/>
						
							<line style="fill:none;stroke:#ACBDFC;stroke-width:2;stroke-linecap:round;stroke-linejoin:round;stroke-dasharray:0,4.9996;" x1="150.994" y1="138.666" x2="150.994" y2="226.159"/>
						
							<line style="fill:none;stroke:#ACBDFC;stroke-width:2;stroke-linecap:round;stroke-linejoin:round;" x1="150.994" y1="228.659" x2="150.994" y2="228.659"/>
						
							<line style="fill:none;stroke:#ACBDFC;stroke-width:2;stroke-linecap:round;stroke-linejoin:round;stroke-dasharray:0,4.9503;" x1="155.944" y1="228.659" x2="247.525" y2="228.659"/>
						
							<line style="fill:none;stroke:#ACBDFC;stroke-width:2;stroke-linecap:round;stroke-linejoin:round;" x1="250" y1="228.659" x2="250" y2="228.659"/>
					</g>
				</g>
				<g>
					<g>
						
							<line style="fill:none;stroke:#ACBDFC;stroke-width:2;stroke-linecap:round;stroke-linejoin:round;" x1="79.11" y1="225.876" x2="79.11" y2="225.876"/>
						
							<line style="fill:none;stroke:#ACBDFC;stroke-width:2;stroke-linecap:round;stroke-linejoin:round;stroke-dasharray:0,6.112;" x1="79.11" y1="231.988" x2="79.11" y2="235.044"/>
						
							<line style="fill:none;stroke:#ACBDFC;stroke-width:2;stroke-linecap:round;stroke-linejoin:round;" x1="79.11" y1="238.1" x2="79.11" y2="238.1"/>
						
							<line style="fill:none;stroke:#ACBDFC;stroke-width:2;stroke-linecap:round;stroke-linejoin:round;stroke-dasharray:0,5.1203;" x1="84.231" y1="238.1" x2="163.596" y2="238.1"/>
						
							<line style="fill:none;stroke:#ACBDFC;stroke-width:2;stroke-linecap:round;stroke-linejoin:round;" x1="166.156" y1="238.1" x2="166.156" y2="238.1"/>
						
							<line style="fill:none;stroke:#ACBDFC;stroke-width:2;stroke-linecap:round;stroke-linejoin:round;stroke-dasharray:0,4.2484;" x1="166.156" y1="233.852" x2="166.156" y2="231.727"/>
						
							<line style="fill:none;stroke:#ACBDFC;stroke-width:2;stroke-linecap:round;stroke-linejoin:round;" x1="166.156" y1="229.603" x2="166.156" y2="229.603"/>
					</g>
				</g>
				<g>
					<g>
						
							<line style="fill:none;stroke:#ACBDFC;stroke-width:2;stroke-linecap:round;stroke-linejoin:round;" x1="356.607" y1="205.006" x2="356.607" y2="205.006"/>
						
							<line style="fill:none;stroke:#ACBDFC;stroke-width:2;stroke-linecap:round;stroke-linejoin:round;stroke-dasharray:0,5.1746;" x1="361.782" y1="205.006" x2="390.242" y2="205.006"/>
						
							<line style="fill:none;stroke:#ACBDFC;stroke-width:2;stroke-linecap:round;stroke-linejoin:round;" x1="392.829" y1="205.006" x2="392.829" y2="205.006"/>
						
							<line style="fill:none;stroke:#ACBDFC;stroke-width:2;stroke-linecap:round;stroke-linejoin:round;stroke-dasharray:0,5.0278;" x1="392.829" y1="199.978" x2="392.829" y2="147.186"/>
						
							<line style="fill:none;stroke:#ACBDFC;stroke-width:2;stroke-linecap:round;stroke-linejoin:round;" x1="392.829" y1="144.672" x2="392.829" y2="144.672"/>
						
							<line style="fill:none;stroke:#ACBDFC;stroke-width:2;stroke-linecap:round;stroke-linejoin:round;stroke-dasharray:0,4.8756;" x1="397.705" y1="144.672" x2="414.769" y2="144.672"/>
						
							<line style="fill:none;stroke:#ACBDFC;stroke-width:2;stroke-linecap:round;stroke-linejoin:round;" x1="417.207" y1="144.672" x2="417.207" y2="144.672"/>
						
							<line style="fill:none;stroke:#ACBDFC;stroke-width:2;stroke-linecap:round;stroke-linejoin:round;stroke-dasharray:0,4.7552;" x1="417.207" y1="139.917" x2="417.207" y2="132.784"/>
						
							<line style="fill:none;stroke:#ACBDFC;stroke-width:2;stroke-linecap:round;stroke-linejoin:round;" x1="417.207" y1="130.407" x2="417.207" y2="130.407"/>
					</g>
				</g>
				<g>
					<g>
						
							<line style="fill:none;stroke:#ACBDFC;stroke-width:2;stroke-linecap:round;stroke-linejoin:round;" x1="235.538" y1="144.768" x2="235.538" y2="144.768"/>
						
							<line style="fill:none;stroke:#ACBDFC;stroke-width:2;stroke-linecap:round;stroke-linejoin:round;stroke-dasharray:0,5.1731;" x1="235.538" y1="149.941" x2="235.538" y2="204.258"/>
						
							<line style="fill:none;stroke:#ACBDFC;stroke-width:2;stroke-linecap:round;stroke-linejoin:round;" x1="235.538" y1="206.845" x2="235.538" y2="206.845"/>
					</g>
				</g>
				<g>
					<g>
						
							<line style="fill:none;stroke:#ACBDFC;stroke-width:2;stroke-linecap:round;stroke-linejoin:round;" x1="134.492" y1="238.1" x2="134.492" y2="238.1"/>
						
							<line style="fill:none;stroke:#ACBDFC;stroke-width:2;stroke-linecap:round;stroke-linejoin:round;stroke-dasharray:0,5.0592;" x1="134.492" y1="243.159" x2="134.492" y2="336.754"/>
						
							<line style="fill:none;stroke:#ACBDFC;stroke-width:2;stroke-linecap:round;stroke-linejoin:round;" x1="134.492" y1="339.284" x2="134.492" y2="339.284"/>
						
							<line style="fill:none;stroke:#ACBDFC;stroke-width:2;stroke-linecap:round;stroke-linejoin:round;stroke-dasharray:0,4.414;" x1="130.078" y1="339.284" x2="123.457" y2="339.284"/>
						
							<line style="fill:none;stroke:#ACBDFC;stroke-width:2;stroke-linecap:round;stroke-linejoin:round;" x1="121.25" y1="339.284" x2="121.25" y2="339.284"/>
					</g>
				</g>
				<g>
					<g>
						
							<line style="fill:none;stroke:#ACBDFC;stroke-width:2;stroke-linecap:round;stroke-linejoin:round;" x1="235.538" y1="160.229" x2="235.538" y2="160.229"/>
						
							<line style="fill:none;stroke:#ACBDFC;stroke-width:2;stroke-linecap:round;stroke-linejoin:round;stroke-dasharray:0,4.8975;" x1="240.436" y1="160.229" x2="335.938" y2="160.229"/>
						
							<line style="fill:none;stroke:#ACBDFC;stroke-width:2;stroke-linecap:round;stroke-linejoin:round;" x1="338.386" y1="160.229" x2="338.386" y2="160.229"/>
						
							<line style="fill:none;stroke:#ACBDFC;stroke-width:2;stroke-linecap:round;stroke-linejoin:round;stroke-dasharray:0,3.6143;" x1="338.386" y1="156.614" x2="338.386" y2="154.807"/>
						
							<line style="fill:none;stroke:#ACBDFC;stroke-width:2;stroke-linecap:round;stroke-linejoin:round;" x1="338.386" y1="153" x2="338.386" y2="153"/>
					</g>
				</g>
				<g>
					<g>
						
							<line style="fill:none;stroke:#ACBDFC;stroke-width:2;stroke-linecap:round;stroke-linejoin:round;" x1="178.907" y1="198.667" x2="178.907" y2="198.667"/>
						
							<line style="fill:none;stroke:#ACBDFC;stroke-width:2;stroke-linecap:round;stroke-linejoin:round;stroke-dasharray:0,4.9987;" x1="178.907" y1="203.665" x2="178.907" y2="226.16"/>
						
							<line style="fill:none;stroke:#ACBDFC;stroke-width:2;stroke-linecap:round;stroke-linejoin:round;" x1="178.907" y1="228.659" x2="178.907" y2="228.659"/>
					</g>
				</g>
				<g>
					<g>
						
							<line style="fill:none;stroke:#ACBDFC;stroke-width:2;stroke-linecap:round;stroke-linejoin:round;" x1="301" y1="233.01" x2="301" y2="233.01"/>
						
							<line style="fill:none;stroke:#ACBDFC;stroke-width:2;stroke-linecap:round;stroke-linejoin:round;stroke-dasharray:0,4.5639;" x1="301" y1="237.574" x2="301" y2="253.548"/>
						
							<line style="fill:none;stroke:#ACBDFC;stroke-width:2;stroke-linecap:round;stroke-linejoin:round;" x1="301" y1="255.83" x2="301" y2="255.83"/>
						
							<line style="fill:none;stroke:#ACBDFC;stroke-width:2;stroke-linecap:round;stroke-linejoin:round;stroke-dasharray:0,5.149;" x1="295.851" y1="255.83" x2="257.233" y2="255.83"/>
						
							<line style="fill:none;stroke:#ACBDFC;stroke-width:2;stroke-linecap:round;stroke-linejoin:round;" x1="254.659" y1="255.83" x2="254.659" y2="255.83"/>
					</g>
				</g>
				<g>
					<g>
						
							<line style="fill:none;stroke:#ACBDFC;stroke-width:2;stroke-linecap:round;stroke-linejoin:round;" x1="426.605" y1="208.814" x2="426.605" y2="208.814"/>
						
							<line style="fill:none;stroke:#ACBDFC;stroke-width:2;stroke-linecap:round;stroke-linejoin:round;stroke-dasharray:0,4.9752;" x1="426.605" y1="213.79" x2="426.605" y2="236.178"/>
						
							<line style="fill:none;stroke:#ACBDFC;stroke-width:2;stroke-linecap:round;stroke-linejoin:round;" x1="426.605" y1="238.665" x2="426.605" y2="238.665"/>
						
							<line style="fill:none;stroke:#ACBDFC;stroke-width:2;stroke-linecap:round;stroke-linejoin:round;stroke-dasharray:0,5.0306;" x1="421.574" y1="238.665" x2="338.569" y2="238.665"/>
						
							<line style="fill:none;stroke:#ACBDFC;stroke-width:2;stroke-linecap:round;stroke-linejoin:round;" x1="336.054" y1="238.665" x2="336.054" y2="238.665"/>
						
							<line style="fill:none;stroke:#ACBDFC;stroke-width:2;stroke-linecap:round;stroke-linejoin:round;stroke-dasharray:0,3.3388;" x1="336.054" y1="235.327" x2="336.054" y2="233.657"/>
						
							<line style="fill:none;stroke:#ACBDFC;stroke-width:2;stroke-linecap:round;stroke-linejoin:round;" x1="336.054" y1="231.988" x2="336.054" y2="231.988"/>
					</g>
				</g>
				
					<line style="fill:none;stroke:#ACBDFC;stroke-width:2;stroke-linecap:round;stroke-linejoin:round;stroke-miterlimit:10;stroke-dasharray:0,5;" x1="94.207" y1="240.25" x2="94.207" y2="254.07"/>
				
					<line style="fill:none;stroke:#ACBDFC;stroke-width:2;stroke-linecap:round;stroke-linejoin:round;stroke-miterlimit:10;stroke-dasharray:0,5;" x1="360.667" y1="89.785" x2="360.667" y2="102.885"/>
				
					<polyline style="fill:none;stroke:#ACBDFC;stroke-width:2;stroke-linecap:round;stroke-linejoin:round;stroke-miterlimit:10;stroke-dasharray:0,5;" points="
					377.031,302.095 377.031,319.875 192.324,319.875 				"/>
			</g>
			<g>
				<g>
					<circle style="opacity:0.13;fill:#797A7A;" cx="138.53" cy="82.999" r="46.186"/>
					
						<ellipse transform="matrix(0.2187 -0.9758 0.9758 0.2187 32.604 199.8645)" style="fill:#695CC6;" cx="141.113" cy="79.572" rx="46.186" ry="46.186"/>
					<circle style="fill:#FFFFFF;" cx="141.113" cy="79.572" r="36.563"/>
					
						<line style="fill:none;stroke:#9EAFFF;stroke-width:1.3519;stroke-linecap:round;stroke-linejoin:round;stroke-miterlimit:10;" x1="160.488" y1="94.317" x2="141.113" y2="79.572"/>
					
						<line style="fill:none;stroke:#FCE885;stroke-width:4.0557;stroke-linecap:round;stroke-linejoin:round;stroke-miterlimit:10;" x1="141.113" y1="59.512" x2="141.113" y2="79.572"/>
					<g>
						<path style="fill:#D4D7DE;" d="M142.308,47.863c0,0.66-0.535,1.194-1.194,1.194c-0.66,0-1.194-0.535-1.194-1.194
							s0.535-1.194,1.194-1.194C141.773,46.669,142.308,47.204,142.308,47.863z"/>
						<path style="fill:#D4D7DE;" d="M142.308,111.38c0,0.66-0.535,1.194-1.194,1.194c-0.66,0-1.194-0.535-1.194-1.194
							c0-0.66,0.535-1.194,1.194-1.194C141.773,110.186,142.308,110.72,142.308,111.38z"/>
						<path style="fill:#D4D7DE;" d="M172.872,80.816c-0.66,0-1.194-0.535-1.194-1.194c0-0.66,0.535-1.194,1.194-1.194
							s1.194,0.535,1.194,1.194C174.066,80.281,173.531,80.816,172.872,80.816z"/>
						<path style="fill:#D4D7DE;" d="M109.355,80.816c-0.66,0-1.194-0.535-1.194-1.194c0-0.66,0.535-1.194,1.194-1.194
							s1.194,0.535,1.194,1.194C110.549,80.281,110.014,80.816,109.355,80.816z"/>
						<path style="fill:#D4D7DE;" d="M158.758,53.189c-0.345,0.562-1.081,0.738-1.643,0.392c-0.562-0.345-0.738-1.081-0.392-1.643
							c0.345-0.562,1.081-0.738,1.643-0.392C158.928,51.891,159.104,52.627,158.758,53.189z"/>
						<path style="fill:#D4D7DE;" d="M125.503,107.305c-0.345,0.562-1.081,0.738-1.643,0.392c-0.562-0.345-0.738-1.081-0.392-1.643
							c0.345-0.562,1.081-0.738,1.643-0.392C125.673,106.007,125.849,106.743,125.503,107.305z"/>
						<path style="fill:#D4D7DE;" d="M169.729,65.796c-0.583,0.309-1.306,0.087-1.615-0.495c-0.309-0.583-0.087-1.306,0.495-1.615
							c0.583-0.309,1.306-0.087,1.615,0.496C170.534,64.764,170.312,65.487,169.729,65.796z"/>
						<path style="fill:#D4D7DE;" d="M113.617,95.558c-0.583,0.309-1.306,0.087-1.615-0.495c-0.309-0.583-0.087-1.306,0.495-1.615
							s1.306-0.087,1.615,0.495S114.199,95.249,113.617,95.558z"/>
						<path style="fill:#D4D7DE;" d="M168.23,96.196c-0.575-0.323-0.78-1.05-0.458-1.626c0.323-0.575,1.05-0.78,1.626-0.458
							c0.575,0.323,0.78,1.051,0.458,1.626S168.805,96.519,168.23,96.196z"/>
						<path style="fill:#D4D7DE;" d="M112.828,65.131c-0.575-0.323-0.78-1.05-0.458-1.626c0.323-0.575,1.051-0.78,1.626-0.458
							s0.78,1.051,0.458,1.626C114.132,65.248,113.404,65.453,112.828,65.131z"/>
						<path style="fill:#D4D7DE;" d="M156.072,107.662c-0.332-0.57-0.139-1.301,0.43-1.633c0.57-0.332,1.301-0.139,1.633,0.431
							c0.332,0.57,0.139,1.301-0.431,1.633C157.135,108.425,156.404,108.232,156.072,107.662z"/>
						<path style="fill:#D4D7DE;" d="M124.091,52.784c-0.332-0.57-0.139-1.301,0.43-1.633s1.301-0.139,1.633,0.431
							s0.139,1.301-0.431,1.633S124.423,53.354,124.091,52.784z"/>
					</g>
				</g>
				<g>
					<path style="opacity:0.13;fill:#797A7A;" d="M373.1,108.472c-0.059-0.006-0.115-0.018-0.176-0.018h-52.712
						c-0.06,0-0.117,0.012-0.176,0.018c-0.745,0.077-1.35,0.623-1.5,1.344c-0.023,0.113-0.036,0.23-0.036,0.35v36.312
						c0,0.2,0.041,0.388,0.103,0.566c0.235,0.666,0.863,1.146,1.609,1.146h0.234h52.477c0.099,0,0.194-0.013,0.288-0.029
						c0.618-0.105,1.117-0.539,1.321-1.117c0.063-0.178,0.103-0.367,0.103-0.566v-36.312c0-0.12-0.013-0.237-0.036-0.35
						C374.45,109.095,373.844,108.549,373.1,108.472z"/>
					<g>
						<path style="fill:#8B77E8;" d="M320.967,107.539c-0.023,0.113-0.036,0.23-0.036,0.35v36.312c0,0.199,0.041,0.388,0.104,0.566
							l23.444-16.595L320.967,107.539z"/>
						<path style="fill:#8B77E8;" d="M351.906,129.481c-0.887,0.554-1.894,0.84-2.907,0.84s-2.02-0.286-2.906-0.84l-23.215,16.433
							h52.477c0.099,0,0.194-0.013,0.288-0.029l-0.58-0.012L351.906,129.481z"/>
						<path style="fill:#8B77E8;" d="M351.302,127.458l24.229-21.263c-0.059-0.006-0.116-0.018-0.176-0.018h-52.712
							c-0.06,0-0.117,0.012-0.176,0.018l24.229,21.263C348.009,128.61,349.989,128.611,351.302,127.458z"/>
						<path style="fill:#8B77E8;" d="M376.964,144.768c0.063-0.178,0.103-0.367,0.103-0.566v-36.312c0-0.12-0.013-0.237-0.036-0.35
							l-23.511,20.633L376.964,144.768z"/>
						<path style="fill:#695CC6;" d="M377.031,107.539c-0.15-0.721-0.755-1.267-1.5-1.344l-24.229,21.263
							c-1.313,1.152-3.293,1.151-4.605,0l-24.229-21.263c-0.745,0.077-1.35,0.623-1.5,1.344l23.511,20.633l-23.444,16.595
							c0.235,0.666,0.863,1.146,1.609,1.146h0.234l23.215-16.433c0.887,0.554,1.894,0.84,2.906,0.84s2.02-0.286,2.907-0.84
							l23.157,16.392l0.58,0.012c0.617-0.105,1.117-0.539,1.321-1.117l-23.444-16.595L377.031,107.539z"/>
					</g>
				</g>
				<g>
					<path style="opacity:0.13;fill:#797A7A;" d="M57.862,269.269c0.717-0.452,1.401-0.957,2.053-1.523l2.763,0.993l2.368-2.964
						l-1.586-2.476c0.405-0.76,0.748-1.544,1.02-2.342l2.894-0.522l0.565-3.748l-2.607-1.35l-0.005,0.014
						c-0.016-0.43-0.039-0.862-0.094-1.294c-0.041-0.419-0.115-0.848-0.187-1.265l2.24-1.896l-1.384-3.528l-2.94,0.131
						c-0.44-0.715-0.944-1.402-1.513-2.055l0.996-2.764l-2.968-2.365l-2.474,1.58c-0.762-0.405-1.541-0.742-2.342-1.018
						l-0.522-2.893l-3.745-0.563l-1.352,2.606l0.014,0.006c-0.432,0.011-0.862,0.039-1.29,0.091
						c-0.428,0.044-0.858,0.115-1.281,0.197l0.014-0.008l-1.898-2.24l-3.529,1.381l0.134,2.94c-0.718,0.44-1.401,0.944-2.056,1.512
						l-2.765-0.991l-2.364,2.964l1.582,2.474c-0.406,0.764-0.745,1.544-1.021,2.347l-2.89,0.518l-0.566,3.747l2.606,1.351
						c0.022,0.422,0.048,0.854,0.098,1.274c0.045,0.43,0.115,0.86,0.2,1.281l-0.012-0.012l-2.241,1.896l1.382,3.527l2.935-0.131
						c0.452,0.714,0.947,1.403,1.519,2.056l-0.992,2.764l2.964,2.364l2.473-1.581c0.766,0.411,1.547,0.743,2.341,1.022l0.525,2.889
						l3.748,0.567l1.349-2.607c0.425-0.021,0.855-0.048,1.279-0.1c0.429-0.045,0.856-0.113,1.277-0.192l1.884,2.247l3.531-1.384
						L57.862,269.269z M43.062,263.942c-4.48-3.573-5.216-10.105-1.64-14.588c3.573-4.479,10.106-5.214,14.585-1.642
						c4.481,3.575,5.216,10.108,1.642,14.587C54.076,266.783,47.544,267.518,43.062,263.942z"/>
					<path style="opacity:0.13;fill:#797A7A;" d="M100.615,281.387l-0.282-4.43l-3.318-0.9l-0.002,0.018
						c-0.124-0.488-0.258-0.977-0.428-1.458c-0.15-0.469-0.341-0.942-0.527-1.401l2.094-2.725l-2.458-3.696l-3.333,0.879
						c-0.681-0.71-1.428-1.371-2.241-1.978l0.456-3.41l-3.983-1.972l-2.44,2.421c-0.972-0.275-1.948-0.468-2.933-0.585l-1.314-3.182
						l-4.426,0.283l-0.902,3.319l0.018,0.003c-0.492,0.12-0.978,0.258-1.454,0.423c-0.479,0.157-0.954,0.344-1.417,0.543
						l0.014-0.013l-2.727-2.094l-3.697,2.455l0.881,3.332c-0.713,0.681-1.37,1.428-1.979,2.24l-3.411-0.45l-1.972,3.978l2.423,2.44
						c-0.276,0.975-0.47,1.952-0.588,2.939l-3.18,1.309l0.28,4.43l3.318,0.901c0.129,0.478,0.267,0.966,0.428,1.434
						c0.158,0.481,0.345,0.955,0.546,1.417l-0.016-0.011l-2.095,2.725l2.456,3.695l3.327-0.876c0.694,0.706,1.432,1.372,2.247,1.977
						l-0.451,3.41l3.978,1.972l2.44-2.422c0.978,0.281,1.955,0.468,2.933,0.59l1.316,3.177l4.431-0.279l0.899-3.318
						c0.482-0.13,0.967-0.267,1.439-0.432c0.479-0.158,0.951-0.341,1.414-0.536l2.714,2.106l3.699-2.458l-0.879-3.323
						c0.709-0.695,1.367-1.443,1.973-2.252l3.409,0.453l1.976-3.98l-2.428-2.442c0.275-0.971,0.473-1.952,0.588-2.934
						L100.615,281.387z M89.945,285.931c-2.98,6.017-10.276,8.476-16.292,5.493c-6.014-2.981-8.474-10.276-5.49-16.293
						c2.981-6.012,10.277-8.472,16.289-5.492C90.466,272.622,92.926,279.917,89.945,285.931z"/>
					<g>
						<path style="fill:#9EAFFF;" d="M65.443,240.923l-2.968-2.365l-2.474,1.58c-0.762-0.405-1.541-0.742-2.342-1.018l-0.522-2.893
							l-3.745-0.563l-1.352,2.606l0.014,0.006c-0.432,0.011-0.862,0.039-1.29,0.091c-0.428,0.044-0.858,0.115-1.281,0.197
							l0.014-0.008l-1.898-2.24l-3.529,1.381l0.134,2.94c-0.718,0.44-1.401,0.944-2.056,1.512l-2.765-0.991l-2.364,2.964
							l1.582,2.474c-0.406,0.764-0.745,1.544-1.021,2.347l-2.89,0.518l-0.567,3.747l2.606,1.351
							c0.022,0.422,0.048,0.854,0.098,1.274c0.045,0.43,0.115,0.859,0.199,1.281l-0.011-0.012l-2.241,1.896l1.382,3.527l2.935-0.13
							c0.452,0.714,0.948,1.403,1.519,2.056l-0.992,2.764l2.964,2.364l2.473-1.581c0.766,0.411,1.547,0.743,2.341,1.022l0.525,2.889
							l3.748,0.567l1.349-2.607c0.425-0.021,0.855-0.048,1.279-0.1c0.429-0.045,0.855-0.113,1.277-0.192l1.884,2.247l3.531-1.383
							l-0.134-2.931c0.717-0.452,1.401-0.958,2.054-1.523l2.763,0.993l2.368-2.964l-1.586-2.476c0.405-0.76,0.748-1.544,1.02-2.342
							l2.894-0.522l0.565-3.748l-2.607-1.35l-0.005,0.014c-0.016-0.43-0.039-0.862-0.094-1.294
							c-0.041-0.419-0.115-0.848-0.187-1.264l2.24-1.896l-1.384-3.528l-2.94,0.131c-0.44-0.715-0.944-1.402-1.513-2.055
							L65.443,240.923z M60.645,260.542c-3.574,4.483-10.106,5.218-14.588,1.642c-4.48-3.573-5.216-10.105-1.64-14.588
							c3.573-4.479,10.106-5.214,14.585-1.642C63.484,249.529,64.219,256.062,60.645,260.542z"/>
						<path style="fill:#FCE885;" d="M93.573,260.526l-3.983-1.972l-2.44,2.421c-0.972-0.275-1.948-0.468-2.933-0.585l-1.314-3.182
							l-4.426,0.283l-0.902,3.318l0.018,0.003c-0.492,0.119-0.978,0.258-1.454,0.423c-0.479,0.157-0.954,0.344-1.418,0.543
							l0.015-0.013l-2.728-2.094l-3.697,2.455l0.881,3.332c-0.713,0.681-1.37,1.428-1.979,2.24l-3.411-0.45l-1.972,3.978l2.423,2.44
							c-0.276,0.975-0.47,1.952-0.588,2.939l-3.18,1.309l0.28,4.43l3.318,0.901c0.129,0.478,0.267,0.966,0.428,1.434
							c0.158,0.481,0.345,0.955,0.546,1.417l-0.016-0.011l-2.095,2.725l2.456,3.695l3.327-0.876
							c0.694,0.706,1.432,1.372,2.248,1.977l-0.451,3.41l3.978,1.972l2.44-2.422c0.978,0.281,1.955,0.468,2.933,0.59l1.316,3.177
							l4.431-0.279l0.899-3.318c0.482-0.13,0.967-0.267,1.439-0.432c0.479-0.158,0.951-0.341,1.414-0.536l2.714,2.106l3.699-2.458
							l-0.879-3.323c0.709-0.695,1.366-1.443,1.973-2.252l3.409,0.453l1.976-3.98l-2.428-2.442c0.275-0.971,0.474-1.952,0.588-2.934
							l3.183-1.314l-0.282-4.43l-3.319-0.9l-0.002,0.018c-0.124-0.488-0.258-0.977-0.428-1.458c-0.15-0.469-0.341-0.942-0.527-1.401
							l2.094-2.725l-2.458-3.696l-3.333,0.879c-0.681-0.71-1.428-1.371-2.241-1.978L93.573,260.526z M92.94,284.172
							c-2.98,6.017-10.276,8.476-16.292,5.493c-6.014-2.981-8.474-10.276-5.49-16.293c2.981-6.012,10.277-8.472,16.289-5.492
							C93.462,270.863,95.922,278.159,92.94,284.172z"/>
					</g>
				</g>
				<g>
					<path style="opacity:0.13;fill:#797A7A;" d="M292.554,35.417h-82.193c-2.149,0-3.891,1.742-3.891,3.891v95.614
						c0,2.149,1.742,3.891,3.891,3.891h82.193c2.149,0,3.891-1.742,3.891-3.891V39.308
						C296.445,37.159,294.703,35.417,292.554,35.417z"/>
					<g>
						<path style="fill:#FCE885;" d="M295.549,136.347h-82.193c-2.149,0-3.891-1.742-3.891-3.891V36.842
							c0-2.149,1.742-3.891,3.891-3.891h82.193c2.149,0,3.891,1.742,3.891,3.891v95.614
							C299.441,134.605,297.699,136.347,295.549,136.347z"/>
						<g>
							<g>
								
									<line style="fill:none;stroke:#FFFFFF;stroke-width:2;stroke-linecap:round;stroke-linejoin:round;stroke-miterlimit:10;" x1="232.328" y1="44.201" x2="288.578" y2="44.201"/>
								
									<line style="fill:none;stroke:#FFFFFF;stroke-width:2;stroke-linecap:round;stroke-linejoin:round;stroke-miterlimit:10;" x1="232.328" y1="49.034" x2="276.99" y2="49.034"/>
							</g>
							<g>
								<path style="fill:#8B77E8;" d="M226.823,46.617c0,3.36-2.724,6.083-6.083,6.083c-3.36,0-6.083-2.724-6.083-6.083
									c0-3.36,2.724-6.083,6.083-6.083C224.099,40.534,226.823,43.257,226.823,46.617z"/>
								<polyline style="fill:none;stroke:#FFFFFF;stroke-linecap:round;stroke-linejoin:round;stroke-miterlimit:10;" points="
									216.91,46.45 219.952,49.437 224.57,44.982 								"/>
							</g>
						</g>
						<g>
							<g>
								
									<line style="fill:none;stroke:#FFFFFF;stroke-width:2;stroke-linecap:round;stroke-linejoin:round;stroke-miterlimit:10;" x1="232.328" y1="62.743" x2="288.578" y2="62.743"/>
								
									<line style="fill:none;stroke:#FFFFFF;stroke-width:2;stroke-linecap:round;stroke-linejoin:round;stroke-miterlimit:10;" x1="232.328" y1="67.576" x2="276.99" y2="67.576"/>
							</g>
							<g>
								<path style="fill:#8B77E8;" d="M226.823,65.16c0,3.36-2.724,6.083-6.083,6.083c-3.36,0-6.083-2.724-6.083-6.083
									c0-3.36,2.724-6.083,6.083-6.083C224.099,59.076,226.823,61.8,226.823,65.16z"/>
								<polyline style="fill:none;stroke:#FFFFFF;stroke-linecap:round;stroke-linejoin:round;stroke-miterlimit:10;" points="
									216.91,64.992 219.952,67.979 224.57,63.524 								"/>
							</g>
						</g>
						<g>
							<g>
								
									<line style="fill:none;stroke:#FFFFFF;stroke-width:2;stroke-linecap:round;stroke-linejoin:round;stroke-miterlimit:10;" x1="232.328" y1="81.285" x2="288.578" y2="81.285"/>
								
									<line style="fill:none;stroke:#FFFFFF;stroke-width:2;stroke-linecap:round;stroke-linejoin:round;stroke-miterlimit:10;" x1="232.328" y1="86.119" x2="276.99" y2="86.119"/>
							</g>
							<g>
								<path style="fill:#8B77E8;" d="M226.823,83.702c0,3.36-2.724,6.083-6.083,6.083c-3.36,0-6.083-2.724-6.083-6.083
									c0-3.36,2.724-6.083,6.083-6.083C224.099,77.619,226.823,80.342,226.823,83.702z"/>
								<polyline style="fill:none;stroke:#FFFFFF;stroke-linecap:round;stroke-linejoin:round;stroke-miterlimit:10;" points="
									216.91,83.534 219.952,86.521 224.57,82.066 								"/>
							</g>
						</g>
						<g>
							<g>
								
									<line style="fill:none;stroke:#FFFFFF;stroke-width:2;stroke-linecap:round;stroke-linejoin:round;stroke-miterlimit:10;" x1="232.328" y1="118.079" x2="288.578" y2="118.079"/>
								
									<line style="fill:none;stroke:#FFFFFF;stroke-width:2;stroke-linecap:round;stroke-linejoin:round;stroke-miterlimit:10;" x1="232.328" y1="122.913" x2="276.99" y2="122.913"/>
							</g>
							<g>
								<path style="fill:#8B77E8;" d="M226.823,120.496c0,3.36-2.724,6.083-6.083,6.083c-3.36,0-6.083-2.724-6.083-6.083
									c0-3.36,2.724-6.083,6.083-6.083C224.099,114.413,226.823,117.136,226.823,120.496z"/>
								<polyline style="fill:none;stroke:#FFFFFF;stroke-linecap:round;stroke-linejoin:round;stroke-miterlimit:10;" points="
									216.91,120.328 219.952,123.315 224.57,118.861 								"/>
							</g>
						</g>
						<g>
							<g>
								
									<line style="fill:none;stroke:#FFFFFF;stroke-width:2;stroke-linecap:round;stroke-linejoin:round;stroke-miterlimit:10;" x1="232.328" y1="100.468" x2="288.578" y2="100.468"/>
								
									<line style="fill:none;stroke:#FFFFFF;stroke-width:2;stroke-linecap:round;stroke-linejoin:round;stroke-miterlimit:10;" x1="232.328" y1="105.302" x2="276.99" y2="105.302"/>
							</g>
							<g>
								<path style="fill:#8B77E8;" d="M226.823,102.885c0,3.36-2.724,6.083-6.083,6.083c-3.36,0-6.083-2.724-6.083-6.083
									c0-3.36,2.724-6.083,6.083-6.083C224.099,96.802,226.823,99.525,226.823,102.885z"/>
								<polyline style="fill:none;stroke:#FFFFFF;stroke-linecap:round;stroke-linejoin:round;stroke-miterlimit:10;" points="
									216.91,102.717 219.952,105.704 224.57,101.25 								"/>
							</g>
						</g>
					</g>
				</g>
				<g>
					<path style="opacity:0.13;fill:#797A7A;" d="M396.296,216.986c2.156,2.156,5.66,2.156,7.816,0l9.329-9.385l-1.123-1.123
						l3.728-3.729c6.307,3.791,14.608,2.983,20.034-2.444c6.397-6.397,6.397-16.764,0-23.161c-6.397-6.397-16.764-6.397-23.161,0
						c-5.444,5.444-6.235,13.728-2.443,20.034l-3.729,3.728l-1.123-1.123l-9.329,9.385
						C394.14,211.326,394.14,214.83,396.296,216.986z M412.715,188.734c0-6.504,5.273-11.777,11.777-11.777
						c6.504,0,11.777,5.273,11.777,11.777c0,6.505-5.273,11.778-11.777,11.778C417.987,200.512,412.715,195.239,412.715,188.734z"/>
					<path style="fill:#F6D562;" d="M400.906,214.57c2.156,2.156,5.66,2.156,7.816,0l9.329-9.385l-1.123-1.123l3.728-3.728
						c6.307,3.791,14.608,2.983,20.034-2.444c6.397-6.396,6.397-16.764,0-23.161c-6.397-6.397-16.764-6.397-23.161,0
						c-5.444,5.444-6.235,13.728-2.444,20.034l-3.728,3.728l-1.123-1.123l-9.329,9.385
						C398.749,208.91,398.749,212.414,400.906,214.57z M417.324,186.318c0-6.504,5.273-11.777,11.777-11.777
						c6.505,0,11.777,5.273,11.777,11.777c0,6.504-5.273,11.777-11.777,11.777C422.597,198.096,417.324,192.823,417.324,186.318z"/>
				</g>
				<g>
					<path style="opacity:0.13;fill:#797A7A;" d="M438.569,65.142h-33.762c-5.404,0-9.786,4.381-9.786,9.785v47.604
						c0,5.404,4.381,9.785,9.786,9.785h33.762c5.404,0,9.786-4.381,9.786-9.785V74.928
						C448.355,69.523,443.974,65.142,438.569,65.142z"/>
					<g>
						<path style="fill:#695CC6;" d="M441.232,129.725h-33.762c-5.404,0-9.785-4.381-9.785-9.786V72.336
							c0-5.404,4.381-9.786,9.785-9.786h33.762c5.404,0,9.786,4.381,9.786,9.786v47.604
							C451.017,125.344,446.636,129.725,441.232,129.725z"/>
						<g>
							
								<line style="fill:none;stroke:#FFFFFF;stroke-width:2;stroke-linecap:round;stroke-linejoin:round;stroke-miterlimit:10;" x1="408.743" y1="78.637" x2="439.958" y2="78.637"/>
							
								<line style="fill:none;stroke:#FFFFFF;stroke-width:2;stroke-linecap:round;stroke-linejoin:round;stroke-miterlimit:10;" x1="408.743" y1="87.387" x2="439.958" y2="87.387"/>
							
								<line style="fill:none;stroke:#FFFFFF;stroke-width:2;stroke-linecap:round;stroke-linejoin:round;stroke-miterlimit:10;" x1="408.743" y1="96.137" x2="439.958" y2="96.137"/>
							
								<line style="fill:none;stroke:#FFFFFF;stroke-width:2;stroke-linecap:round;stroke-linejoin:round;stroke-miterlimit:10;" x1="408.743" y1="104.887" x2="439.958" y2="104.887"/>
							
								<line style="fill:none;stroke:#FFFFFF;stroke-width:2;stroke-linecap:round;stroke-linejoin:round;stroke-miterlimit:10;" x1="408.743" y1="113.637" x2="429.517" y2="113.637"/>
						</g>
						<g>
							
								<line style="fill:none;stroke:#FCE885;stroke-width:4;stroke-linecap:round;stroke-linejoin:round;stroke-miterlimit:10;" x1="409.601" y1="59.616" x2="409.601" y2="65.484"/>
							
								<line style="fill:none;stroke:#FCE885;stroke-width:4;stroke-linecap:round;stroke-linejoin:round;stroke-miterlimit:10;" x1="416.976" y1="59.616" x2="416.976" y2="65.484"/>
							
								<line style="fill:none;stroke:#FCE885;stroke-width:4;stroke-linecap:round;stroke-linejoin:round;stroke-miterlimit:10;" x1="424.351" y1="59.616" x2="424.351" y2="65.484"/>
							
								<line style="fill:none;stroke:#FCE885;stroke-width:4;stroke-linecap:round;stroke-linejoin:round;stroke-miterlimit:10;" x1="431.726" y1="59.616" x2="431.726" y2="65.484"/>
							
								<line style="fill:none;stroke:#FCE885;stroke-width:4;stroke-linecap:round;stroke-linejoin:round;stroke-miterlimit:10;" x1="439.101" y1="59.616" x2="439.101" y2="65.484"/>
						</g>
					</g>
				</g>
				<g>
					<path style="opacity:0.13;fill:#797A7A;" d="M371.801,52.221h-50.467c-2.001,0-3.623,1.622-3.623,3.623v28.314
						c0,2.001,1.622,3.623,3.623,3.623h50.467c2.001,0,3.623-1.622,3.623-3.623V55.844
						C375.425,53.843,373.802,52.221,371.801,52.221z"/>
					<g>
						<path style="fill:#8B77E8;" d="M374.494,85.356h-50.467c-2.001,0-3.623-1.622-3.623-3.623V53.419
							c0-2.001,1.622-3.623,3.623-3.623h50.467c2.001,0,3.623,1.622,3.623,3.623v28.314
							C378.117,83.734,376.495,85.356,374.494,85.356z"/>
						<path style="fill:#FFFFFF;" d="M356.342,66.154l-9.239-5.334c-1.095-0.632-2.463,0.158-2.463,1.422V72.91
							c0,1.264,1.368,2.054,2.463,1.422l9.239-5.334C357.437,68.366,357.437,66.786,356.342,66.154z"/>
					</g>
				</g>
				<g>
					<path style="opacity:0.13;fill:#797A7A;" d="M444.651,290.141h-30.532v-32.382c0-2.531-2.052-4.582-4.582-4.582h-58.856
						c-2.531,0-4.582,2.051-4.582,4.582v35.583c0,2.531,2.051,4.582,4.582,4.582h0.287v7.327l10.502-7.211l-0.6-0.116h28.798v24.32
						c0,2.531,2.051,4.582,4.582,4.582h40.212l-0.6,0.116l10.502,7.211v-7.326h0.287c2.53,0,4.582-2.052,4.582-4.582v-27.52
						C449.233,292.193,447.182,290.141,444.651,290.141z"/>
					<g>
						<g>
							<path style="fill:#9EAFFF;" d="M412.698,248.494h-58.856c-2.531,0-4.582,2.051-4.582,4.582v35.583
								c0,2.531,2.051,4.582,4.582,4.582h0.287v7.326l10.502-7.211l-0.6-0.116h48.667c2.531,0,4.582-2.052,4.582-4.582v-35.583
								C417.28,250.545,415.229,248.494,412.698,248.494z"/>
							<g>
								
									<line style="fill:none;stroke:#FFFFFF;stroke-width:2;stroke-linecap:round;stroke-linejoin:round;stroke-miterlimit:10;" x1="362.27" y1="258.821" x2="404.27" y2="258.821"/>
								
									<line style="fill:none;stroke:#FFFFFF;stroke-width:2;stroke-linecap:round;stroke-linejoin:round;stroke-miterlimit:10;" x1="362.27" y1="264.901" x2="404.27" y2="264.901"/>
								
									<line style="fill:none;stroke:#FFFFFF;stroke-width:2;stroke-linecap:round;stroke-linejoin:round;stroke-miterlimit:10;" x1="362.27" y1="270.98" x2="404.27" y2="270.98"/>
								
									<line style="fill:none;stroke:#FFFFFF;stroke-width:2;stroke-linecap:round;stroke-linejoin:round;stroke-miterlimit:10;" x1="362.27" y1="277.06" x2="404.27" y2="277.06"/>
								
									<line style="fill:none;stroke:#FFFFFF;stroke-width:2;stroke-linecap:round;stroke-linejoin:round;stroke-miterlimit:10;" x1="362.27" y1="283.139" x2="386.937" y2="283.139"/>
							</g>
						</g>
						<g>
							<path style="fill:#F6D562;" d="M397.411,285.458h50.401c2.531,0,4.582,2.051,4.582,4.582v27.52
								c0,2.531-2.051,4.582-4.582,4.582h-0.287v7.327l-10.502-7.211l0.6-0.116h-40.212c-2.531,0-4.582-2.051-4.582-4.582v-27.52
								C392.829,287.51,394.881,285.458,397.411,285.458z"/>
							<g>
								
									<line style="fill:none;stroke:#FFFFFF;stroke-width:2;stroke-linecap:round;stroke-linejoin:round;stroke-miterlimit:10;" x1="405.409" y1="294.246" x2="439.814" y2="294.246"/>
								
									<line style="fill:none;stroke:#FFFFFF;stroke-width:2;stroke-linecap:round;stroke-linejoin:round;stroke-miterlimit:10;" x1="405.409" y1="300.325" x2="439.814" y2="300.325"/>
								
									<line style="fill:none;stroke:#FFFFFF;stroke-width:2;stroke-linecap:round;stroke-linejoin:round;stroke-miterlimit:10;" x1="405.409" y1="306.405" x2="439.814" y2="306.405"/>
								
									<line style="fill:none;stroke:#FFFFFF;stroke-width:2;stroke-linecap:round;stroke-linejoin:round;stroke-miterlimit:10;" x1="405.409" y1="312.484" x2="422.481" y2="312.484"/>
							</g>
						</g>
					</g>
				</g>
				<g>
					<path style="opacity:0.13;fill:#797A7A;" d="M351.546,173.883H287.33c-2.152,0-3.896,1.744-3.896,3.896v5.224v41.402
						c0,2.152,1.744,3.896,3.896,3.896h64.216c2.152,0,3.896-1.744,3.896-3.896v-41.402v-5.224
						C355.442,175.627,353.698,173.883,351.546,173.883z"/>
					<g>
						<g>
							<path style="fill:#FCE885;" d="M354.575,225.876H290.36c-2.152,0-3.896-1.744-3.896-3.896v-46.626
								c0-2.152,1.744-3.896,3.896-3.896h64.216c2.152,0,3.896,1.744,3.896,3.896v46.626
								C358.471,224.131,356.727,225.876,354.575,225.876z"/>
							<path style="fill:#9EAFFF;" d="M358.471,180.578h-72.008v-5.224c0-2.152,1.744-3.896,3.896-3.896h64.216
								c2.152,0,3.896,1.744,3.896,3.896V180.578z"/>
						</g>
						<g>
							<g>
								<path style="fill:#FFFFFF;" d="M322.467,217.305c-8.342,0-15.128-6.787-15.128-15.129s6.786-15.129,15.128-15.129
									c8.343,0,15.129,6.787,15.129,15.129S330.81,217.305,322.467,217.305z M322.467,188.263
									c-7.672,0-13.913,6.241-13.913,13.913c0,7.672,6.241,13.913,13.913,13.913c7.672,0,13.914-6.241,13.914-13.913
									C336.381,194.504,330.139,188.263,322.467,188.263z"/>
							</g>
							<g>
								<path style="fill:#FFFFFF;" d="M322.467,217.305c-0.336,0-0.607-0.272-0.607-0.608v-29.042c0-0.336,0.272-0.608,0.607-0.608
									c0.336,0,0.607,0.272,0.607,0.608v29.042C323.074,217.033,322.803,217.305,322.467,217.305z"/>
							</g>
							<g>
								<path style="fill:#FFFFFF;" d="M336.767,202.784h-27.963c-0.336,0-0.607-0.272-0.607-0.608c0-0.336,0.271-0.608,0.607-0.608
									h27.963c0.336,0,0.607,0.272,0.607,0.608C337.374,202.511,337.103,202.784,336.767,202.784z"/>
							</g>
							<g>
								<path style="fill:#FFFFFF;" d="M315.146,215.09c-0.263,0-0.505-0.171-0.583-0.436c-4.85-16.471-0.146-24.892,0.057-25.242
									c0.167-0.29,0.537-0.39,0.829-0.222c0.291,0.167,0.391,0.539,0.224,0.83c-0.047,0.082-4.632,8.37,0.057,24.291
									c0.095,0.322-0.089,0.66-0.411,0.755C315.26,215.083,315.202,215.09,315.146,215.09z"/>
							</g>
							<g>
								<path style="fill:#FFFFFF;" d="M329.61,215.09c-0.057,0-0.114-0.008-0.172-0.025c-0.322-0.095-0.506-0.433-0.411-0.755
									c4.688-15.92,0.103-24.209,0.057-24.291c-0.167-0.291-0.067-0.662,0.224-0.83c0.292-0.167,0.662-0.068,0.829,0.222
									c0.202,0.35,4.906,8.771,0.057,25.242C330.115,214.919,329.872,215.09,329.61,215.09z"/>
							</g>
							<g>
								<path style="fill:#FFFFFF;" d="M309.995,195.475c-0.263,0-0.505-0.171-0.583-0.436c-0.095-0.322,0.089-0.66,0.411-0.755
									c16.468-4.851,24.892-0.146,25.242,0.057c0.29,0.168,0.389,0.539,0.222,0.829c-0.167,0.291-0.54,0.39-0.829,0.224
									c-0.082-0.047-8.373-4.631-24.291,0.056C310.11,195.467,310.052,195.475,309.995,195.475z"/>
							</g>
							<g>
								<path style="fill:#FFFFFF;" d="M323.755,212.1c-3.726,0-8.369-0.548-13.932-2.187c-0.322-0.095-0.506-0.433-0.411-0.755
									c0.095-0.322,0.43-0.507,0.755-0.411c15.919,4.689,24.208,0.104,24.291,0.056c0.289-0.166,0.662-0.067,0.829,0.224
									c0.167,0.291,0.068,0.661-0.222,0.829C334.833,209.991,331.061,212.1,323.755,212.1z"/>
							</g>
						</g>
					</g>
				</g>
				<g>
					<path style="opacity:0.13;fill:#797A7A;" d="M107.131,319.815H23.055c-2.817,0-5.101,2.284-5.101,5.101v6.84v50.258
						c0,2.817,2.284,5.101,5.101,5.101h84.076c2.817,0,5.101-2.284,5.101-5.101v-50.258v-6.84
						C112.232,322.099,109.948,319.815,107.131,319.815z"/>
					<g>
						<g>
							<path style="fill:#F6D562;" d="M111.097,383.939H27.021c-2.817,0-5.101-2.284-5.101-5.101v-57.098
								c0-2.817,2.284-5.101,5.101-5.101h84.076c2.817,0,5.101,2.284,5.101,5.101v57.098
								C116.198,381.655,113.915,383.939,111.097,383.939z"/>
							<path style="fill:#695CC6;" d="M116.198,332.139H21.92v-10.398c0-2.817,2.284-5.101,5.101-5.101h84.076
								c2.817,0,5.101,2.284,5.101,5.101V332.139z"/>
						</g>
						<g>
							<g>
								<path style="fill:none;stroke:#FFFFFF;stroke-miterlimit:10;" d="M42.227,352.684h-7.638c-1.645,0-2.991-1.346-2.991-2.992
									v-7.638c0-1.645,1.346-2.991,2.991-2.991h7.638c1.645,0,2.992,1.346,2.992,2.991v7.638
									C45.218,351.337,43.872,352.684,42.227,352.684z"/>
								<path style="fill:#9EAFFF;" d="M62.102,352.684h-7.638c-1.645,0-2.991-1.346-2.991-2.992v-7.638
									c0-1.645,1.346-2.991,2.991-2.991h7.638c1.645,0,2.992,1.346,2.992,2.991v7.638
									C65.093,351.337,63.747,352.684,62.102,352.684z"/>
								<path style="fill:none;stroke:#FFFFFF;stroke-miterlimit:10;" d="M81.976,352.684h-7.638c-1.645,0-2.992-1.346-2.992-2.992
									v-7.638c0-1.645,1.346-2.991,2.992-2.991h7.638c1.645,0,2.992,1.346,2.992,2.991v7.638
									C84.968,351.337,83.621,352.684,81.976,352.684z"/>
								<path style="fill:none;stroke:#FFFFFF;stroke-miterlimit:10;" d="M101.851,352.684h-7.638c-1.645,0-2.991-1.346-2.991-2.992
									v-7.638c0-1.645,1.346-2.991,2.991-2.991h7.638c1.645,0,2.992,1.346,2.992,2.991v7.638
									C104.842,351.337,103.496,352.684,101.851,352.684z"/>
							</g>
							<g>
								<path style="fill:none;stroke:#FFFFFF;stroke-miterlimit:10;" d="M42.227,372.684h-7.638c-1.645,0-2.991-1.346-2.991-2.992
									v-7.638c0-1.645,1.346-2.991,2.991-2.991h7.638c1.645,0,2.992,1.346,2.992,2.991v7.638
									C45.218,371.338,43.872,372.684,42.227,372.684z"/>
								<path style="fill:none;stroke:#FFFFFF;stroke-miterlimit:10;" d="M62.102,372.684h-7.638c-1.645,0-2.991-1.346-2.991-2.992
									v-7.638c0-1.645,1.346-2.991,2.991-2.991h7.638c1.645,0,2.992,1.346,2.992,2.991v7.638
									C65.093,371.338,63.747,372.684,62.102,372.684z"/>
								<path style="fill:#9EAFFF;" d="M81.976,372.684h-7.638c-1.645,0-2.992-1.346-2.992-2.992v-7.638
									c0-1.645,1.346-2.991,2.992-2.991h7.638c1.645,0,2.992,1.346,2.992,2.991v7.638
									C84.968,371.338,83.621,372.684,81.976,372.684z"/>
								<path style="fill:none;stroke:#FFFFFF;stroke-miterlimit:10;" d="M101.851,372.684h-7.638c-1.645,0-2.991-1.346-2.991-2.992
									v-7.638c0-1.645,1.346-2.991,2.991-2.991h7.638c1.645,0,2.992,1.346,2.992,2.991v7.638
									C104.842,371.338,103.496,372.684,101.851,372.684z"/>
							</g>
						</g>
					</g>
				</g>
				<g>
					<g>
						<path style="opacity:0.13;fill:#797A7A;" d="M125.615,223.334H46.163c-1.913,0-3.478-1.565-3.478-3.478v-54.265
							c0-1.913,1.565-3.478,3.478-3.478h79.452c1.913,0,3.478,1.565,3.478,3.478v54.265
							C129.094,221.769,127.528,223.334,125.615,223.334z"/>
						<path style="fill:#FCE885;" d="M129.036,219.792H49.584c-1.913,0-3.478-1.565-3.478-3.478v-54.265
							c0-1.913,1.565-3.478,3.478-3.478h79.452c1.913,0,3.478,1.565,3.478,3.478v54.265
							C132.514,218.227,130.949,219.792,129.036,219.792z"/>
						<g>
							<rect x="70.275" y="180.602" style="fill:#FFFFFF;" width="5.97" height="26.243"/>
							<rect x="101.696" y="174.82" style="fill:#9EAFFF;" width="5.97" height="32.025"/>
							<rect x="91.275" y="185.855" style="fill:#FFFFFF;" width="5.97" height="20.99"/>
							<rect x="80.751" y="191.057" style="fill:#695CC6;" width="5.97" height="15.788"/>
							<polyline style="fill:none;stroke:#9EAFFF;stroke-linecap:round;stroke-linejoin:round;stroke-miterlimit:10;" points="
								63.778,171.517 63.778,206.845 114.841,206.845 							"/>
						</g>
					</g>
					<g>
						<circle style="fill:#9EAFFF;" cx="128.555" cy="159.606" r="14.563"/>
						<g>
							
								<polyline style="fill:none;stroke:#FFFFFF;stroke-width:1.9575;stroke-linecap:round;stroke-linejoin:round;stroke-miterlimit:10;" points="
								120.888,158.708 126.978,164.687 136.222,155.77 							"/>
						</g>
					</g>
				</g>
			</g>
		</g>
		<g>
			<g>
				<g>
					<path style="fill:#A5614C;" d="M171.792,319.875c0,0,0.534,7.157-0.257,10.553c-0.791,3.396,2.977,10.001,23.257,4.822
						c20.28-5.179,15.25-4.822,15.25-4.822s-2.094-5.553-2.094-7.928S171.792,319.875,171.792,319.875z"/>
					<g>
						<path style="fill:#A5614C;" d="M240.691,346.282l23.853-3.364l40.672-57.651c0,0-2.419-10.196,0.993-16.105
							c1.617-2.801,3.659-2.398,4.125-3.03c3.257-4.427,6.159-4.558,11.778-2.953c6.422,1.835,8.408,7.942,9.189,10.967
							c2.296,8.893-8.269,14.396-8.269,14.396s-35.417,65.771-38.973,69.985c-5.222,6.191-41.074,11.76-41.074,11.76
							L240.691,346.282z"/>
						<path style="fill:#A5614C;" d="M310.333,266.132c0,0,7.912-14.207,9.143-14.917c1.231-0.711,3.555-0.344,3.555,2.408
							c0,2.752-4.931,16.169-4.931,16.169L310.333,266.132z"/>
						
							<path style="fill:none;stroke:#824737;stroke-width:0.9174;stroke-linecap:round;stroke-linejoin:round;stroke-miterlimit:10;" d="
							M310.782,266.935c0,0,8.576-0.803,10.913-0.803c2.025,0,2.591,2.574,2.025,3.555c-0.983,1.702-10.683,3.154-10.683,3.154"/>
					</g>
					<g>
						<g>
							<g>
								<path style="fill:#FCE885;" d="M142.211,460.839l-2.39-76.164c0,0-13.239-17.968,2.015-37.979
									c12.213-16.022,30.313-17.331,30.313-17.331s12.951,4.28,22.157,3.823c13.541-0.673,15.339-3.862,15.339-3.862
									s20.858,2.045,41.222,9.217c2.141,9.502,2.141,33.952,2.141,33.952l-20.219,6.618l11.547,81.418"/>
							</g>
							<path style="opacity:0.05;fill:#070707;" d="M162.166,460.357c-13.031-14.305-21.116-38.366-22.345-75.682l2.507,76.16"/>
							<polygon style="opacity:0.07;fill:#070707;" points="230.503,357.475 235.404,378.256 232.79,379.111 							"/>
						</g>
					</g>
					<g>
						<g>
							<path style="fill:#F8B986;" d="M232.821,431.744c-0.836-0.159-1.579-0.294-2.089-0.323"/>
						</g>
						<g>
							<path style="fill:#A5614C;" d="M233.102,432.79c-9.331-0.532-31.954-8.183-38.767-12.249
								c-8.025-4.79-18.772-36.222-22.186-42.134c-20.082,0-25.828,12.197-25.828,12.197c5.528,12.161,20.249,36.162,36.963,44.554
								c14.59,7.325,34.505,8.973,46.697,9.666c0.921,0.052,1.887,0.069,2.84,0.161"/>
						</g>
					</g>
					<path style="fill:#A5614C;" d="M232.056,445.133c-4.065-0.857-2.735-10.296-1.388-11.921
						c1.347-1.626,10.361-2.236,13.919-0.892c3.558,1.344,8.744,2.677,14.097,8.03c5.353,5.353,0,6.96,0,6.96
						S236.121,445.991,232.056,445.133"/>
					<path style="fill:#F6D562;" d="M209.645,329.324c0,0-1.798,3.189-15.339,3.862c-9.206,0.458-22.157-3.823-22.157-3.823
						s-4.466,0.734-5.648,1.064c0,0,7.95,8.744,23.131,8.854c11.956,0.087,19.42-2.618,22.642-5.841
						c2.486-2.486,2.798-3.37,2.798-3.37C213.677,329.822,209.645,329.324,209.645,329.324z"/>
					<polygon style="opacity:0.07;fill:#070707;" points="170.432,362.828 174.61,376.986 172.149,378.406 173.357,380.499 
						177.547,378.079 					"/>
					<polygon style="opacity:0.07;fill:#070707;" points="139.822,384.675 144.602,392.733 146.736,391.501 147.807,393.707 
						144.364,395.736 					"/>
					<g>
						<g>
							<g>
								<g>
									<path style="fill:#A5614C;" d="M174.05,207.9c0,0-11.31,2.691-23.169,9.614c-12.159,7.098-24.895,18.644-26.609,36.298
										c-0.987,10.165-0.114,19.992,2.58,28.993c6.547,21.881,23.854,38.892,51.371,44.066
										c19.419,3.651,40.447,0.977,56.083-10.512c15.636-11.488,24.998-35.863,21.114-56.167
										c-3.884-20.304-13.217-31.077-27.635-40.469C213.368,210.332,194.747,206.393,174.05,207.9z"/>
									
										<path style="fill:none;stroke:#824737;stroke-width:2.6309;stroke-linecap:round;stroke-linejoin:round;stroke-miterlimit:10;" d="
										M207.284,265.403c0,0-0.12,5.404,2.152,8.194c2.271,2.791,1.639,5.049-1.676,6.003c-0.97,0.279-2.646,0.426-2.646,0.426"/>
									<g>
										<g>
											<path style="fill:#3F3238;" d="M258.941,235.169c0,0,4.417-7.891,0-15.651c-5.114-5.114-12.336-2.421-10.978-4.812
												c2.174-3.827,1.081-11.257-0.879-13.636c-4.486-5.443-11.497-4.294-16.352-4.294c0-4.1,0.261-8.609-5.929-10.935
												c-5.832-2.192-11.77,1.645-15.309,5.183c0-6.662-12.679-18.389-23.525-2.119c-2.469-4.366-22.469-15.406-31.711,6.786
												c-4.08-2.027-19.299-4.797-28.681,7.281c-3.335,4.293-3.769,7.751-4.1,13.178c-9.664,0-20.499,17.39-12.769,27.666
												c3.371,4.482,2.286,0.542-2.51,9.249c-3.136,5.693,0.5,15.454,5.24,18.97c-2.634,8.893,3.325,19.375,12.315,21.659
												c-1.579,2.869-0.363,6.7,2.142,8.81c2.504,2.11,5.96,2.754,9.232,2.628c2.267-0.088,4.645-0.567,6.335-2.08
												c3.38-3.025,2.531-8.475,1.04-12.759c2.583-1.028,4.233-3.73,4.611-6.484c0.379-2.754-0.335-5.549-1.354-8.135
												c-0.555-1.409-4.505-3.087,1.55-6.673c2.958-1.752,3.497-6.212,2.333-9.447c-0.499-1.389-1.392-2.605-2.503-3.573
												c0.33-0.145,0.584-0.261,0.725-0.336c1.153-0.606,2.534-0.46,3.833-0.559c4.68-0.357,8.755-4.552,8.978-9.24
												c0.06-1.258-0.085-2.654,0.697-3.641c0.855-1.078,2.442-1.509,3.795-1.258c11.369,2.104,18.747,0.527,23.45-9.623
												c1.267,4.727,10.595,7.984,15.45,7.368c4.856-0.616,10.352-7.378,10.398-12.273c2.488,4.475,7.452,16.866,20.426,7.179
												c11.252,15.076,22.429,32.796,14.231,64.835c7.419-6.587,16.387-23.408,14.322-33.535
												C274.024,245.08,258.941,235.169,258.941,235.169z"/>
										</g>
									</g>
									<path style="fill:#FFFFFF;" d="M194.462,288.024c0,0,11.559,2.717,20.927-0.963c1.423-0.559,3.056,0.245,3.435,1.726
										c0.055,0.214,0.093,0.444,0.111,0.693c0.163,2.278-3.067,6.682-7.684,8.151c-4.616,1.469-12.709,1.006-16.248-2.06
										C191.464,292.506,191.585,287.519,194.462,288.024z"/>
									
										<ellipse transform="matrix(0.973 -0.2309 0.2309 0.973 -61.8164 45.4512)" style="opacity:0.07;fill:#070707;" cx="163.316" cy="286.882" rx="11.137" ry="11.137"/>
									
										<ellipse transform="matrix(0.973 -0.2309 0.2309 0.973 -58.6502 63.8019)" style="opacity:0.07;fill:#070707;" cx="243.316" cy="282.527" rx="11.137" ry="11.137"/>
									<g>
										<path style="fill:#352A30;" d="M176.819,269.539c0.23,2.789-1.183,5.182-3.156,5.345
											c-1.973,0.163-3.759-1.967-3.989-4.756c-0.23-2.789,1.183-5.183,3.156-5.345
											C174.803,264.621,176.589,266.75,176.819,269.539z"/>
										<path style="fill:#352A30;" d="M234.022,265.108c0.23,2.79-1.183,5.183-3.156,5.346c-1.973,0.163-3.758-1.967-3.989-4.756
											c-0.23-2.79,1.183-5.183,3.156-5.345C232.006,260.19,233.792,262.319,234.022,265.108z"/>
									</g>
									<g>
										<path style="fill:none;stroke:#FFFFFF;stroke-width:2.9395;stroke-miterlimit:10;" d="M191.521,270.724
											c-1.018,10.041-9.984,17.355-20.025,16.336c-10.041-1.018-17.355-9.984-16.336-20.024
											c1.018-10.041,9.983-17.355,20.024-16.336C185.225,251.718,192.539,260.684,191.521,270.724z"/>
										<path style="fill:none;stroke:#FFFFFF;stroke-width:2.9395;stroke-miterlimit:10;" d="M248.63,265.487
											c-1.019,10.041-9.984,17.355-20.025,16.336c-10.041-1.019-17.355-9.984-16.336-20.024
											c1.018-10.041,9.984-17.355,20.024-16.336C242.334,246.481,249.648,255.446,248.63,265.487z"/>
										<path style="fill:none;stroke:#FFFFFF;stroke-width:2.9395;stroke-miterlimit:10;" d="M191.521,270.724
											c0,0,8.081-16.016,20.956-3.767"/>
										
											<line style="fill:none;stroke:#FFFFFF;stroke-width:2.9395;stroke-linecap:round;stroke-linejoin:round;stroke-miterlimit:10;" x1="154.276" y1="271.432" x2="139.728" y2="274.384"/>
									</g>
								</g>
								<path style="opacity:0.07;fill:#070707;" d="M208.936,327.067c0,0-13.512,3.228-29.227-0.352
									c1.79,1.034,12.197,6.232,29.813,2.286L208.936,327.067z"/>
							</g>
						</g>
					</g>
				</g>
				<g>
					<path style="fill:#9EAFFF;" d="M286.78,343.234l-26.322,109.608h115.909c5.001,0,9.342-3.445,10.479-8.314l21.667-92.565
						c1.014-4.343-2.283-8.497-6.742-8.497L286.78,343.234z"/>
					<g>
						<path style="fill:#8B77E8;" d="M179.733,452.842h80.821c1.895,0,3.55-1.282,4.024-3.116l26.171-101.296
							c0.574-2.223-0.762-4.49-2.985-5.064c-2.224-0.573-4.49,0.763-5.064,2.985l-25.366,98.178h-77.601
							c-2.296,0-4.156,1.861-4.156,4.156C175.577,450.981,177.438,452.842,179.733,452.842z"/>
					</g>
					<path style="fill:#8B77E8;" d="M333.859,394.283c-3.264,3.972-3.324,9.317-0.134,11.938c3.19,2.622,8.422,1.527,11.686-2.445
						c3.264-3.972,3.324-9.317,0.134-11.938C342.355,389.216,337.123,390.311,333.859,394.283z"/>
				</g>
			</g>
			<rect y="452.842" style="fill:#D1D1E8;" width="500" height="47.159"/>
		</g>
	</g>
</g>
</svg>
